<svg xmlns="http://www.w3.org/2000/svg" xmlns:xlink="http://www.w3.org/1999/xlink" version="1.1" preserveAspectRatio="none" x="0px" y="0px" viewBox="0 0 100 125"><defs><g id="a"><path fill="#000000" stroke="none" d=" M 72.5 40 Q 72.5033203125 26.510546875 62.95 16.95 53.49140625 7.4986328125 40 7.5 26.511328125 7.5 16.95 16.95 7.5 26.511328125 7.5 40 7.4986328125 53.49140625 16.95 62.95 26.510546875 72.5033203125 40 72.5 53.4919921875 72.5048828125 62.95 62.95 72.5048828125 53.4919921875 72.5 40 M 59.4 20.5 Q 67.496484375 28.5892578125 67.5 40 67.494921875 51.4078125 59.4 59.4 51.4078125 67.494921875 40 67.5 28.5892578125 67.496484375 20.5 59.4 12.5013671875 51.40859375 12.5 40 12.4998046875 28.588671875 20.5 20.5 28.588671875 12.4998046875 40 12.5 51.40859375 12.5013671875 59.4 20.5 M 92.5 90 Q 92.503515625 88.9607421875 91.75 88.2 L 68.7 65.15 Q 67.9890625 64.4462890625 66.95 64.45 65.9107421875 64.4462890625 65.15 65.15 64.4462890625 65.9107421875 64.45 66.95 64.4462890625 67.9890625 65.15 68.7 L 88.2 91.75 Q 88.9607421875 92.503515625 90 92.5 91.0390625 92.503515625 91.75 91.75 92.503515625 91.0390625 92.5 90 Z"/></g></defs><g transform="matrix( 1, 0, 0, 1, 0,0) "><use xlink:href="#a"/></g><text x="0" y="115" fill="#000000" font-size="5px" font-weight="bold" font-family="'Helvetica Neue', Helvetica, Arial-Unicode, Arial, Sans-serif">Created by Veronika Krpciarova</text><text x="0" y="120" fill="#000000" font-size="5px" font-weight="bold" font-family="'Helvetica Neue', Helvetica, Arial-Unicode, Arial, Sans-serif">from the Noun Project</text></svg>